HIERARCHY
ROOT Hips
{
	OFFSET	0.00	0.00	0.00
	CHANNELS 6 Xposition Yposition Zposition Zrotation Xrotation Yrotation
	JOINT LeftUpLeg
	{
		OFFSET	 0.126116	-0.014019	-0.065224
		CHANNELS 3 Zrotation Xrotation Yrotation
		JOINT LeftLeg
		{
			OFFSET	 0.000000	 0.000000	 0.569914
			CHANNELS 3 Zrotation Xrotation Yrotation
			JOINT LeftFoot
			{
				OFFSET	 0.000000	 0.000000	 0.544423
				CHANNELS 3 Zrotation Xrotation Yrotation
				JOINT LeftToeBase
				{
					OFFSET	 0.000000	 0.000000	 0.207117
					CHANNELS 3 Zrotation Xrotation Yrotation
					End Site
					{
						OFFSET	 0.000000	 0.000000	 0.207117
					}
				}
			}
		}
	}
	JOINT RightUpLeg
	{
		OFFSET	-0.124023	-0.008373	-0.065224
		CHANNELS 3 Zrotation Xrotation Yrotation
		JOINT RightLeg
		{
			OFFSET	 0.000000	 0.000000	 0.570047
			CHANNELS 3 Zrotation Xrotation Yrotation
			JOINT RightFoot
			{
				OFFSET	 0.000000	 0.000000	 0.544354
				CHANNELS 3 Zrotation Xrotation Yrotation
				JOINT RightToeBase
				{
					OFFSET	 0.000000	 0.000000	 0.207540
					CHANNELS 3 Zrotation Xrotation Yrotation
					End Site
					{
						OFFSET	 0.000000	 0.000000	 0.207540
					}
				}
			}
		}
	}
	JOINT Spine
	{
		OFFSET	 0.000184	-0.007763	 0.117403
		CHANNELS 3 Zrotation Xrotation Yrotation
		JOINT Spine1
		{
			OFFSET	 0.000000	 0.000000	 0.137269
			CHANNELS 3 Zrotation Xrotation Yrotation
			JOINT Spine2
			{
				OFFSET	 0.000000	 0.000000	 0.156879
				CHANNELS 3 Zrotation Xrotation Yrotation
				JOINT LeftShoulder
				{
					OFFSET	 0.080501	-0.002496	 0.160144
					CHANNELS 3 Zrotation Xrotation Yrotation
					JOINT LeftArm
					{
						OFFSET	 0.000000	 0.000000	 0.164363
						CHANNELS 3 Zrotation Xrotation Yrotation
						JOINT LeftForeArm
						{
							OFFSET	 0.000000	 0.000000	 0.364576
							CHANNELS 3 Zrotation Xrotation Yrotation
							JOINT LeftHand
							{
								OFFSET	 0.000000	 0.000000	 0.360812
								CHANNELS 3 Zrotation Xrotation Yrotation
								JOINT LeftHandIndex1
								{
									OFFSET	 0.000000	 0.000000	 0.086006
									CHANNELS 3 Zrotation Xrotation Yrotation
									JOINT LeftHandIndex2
									{
										OFFSET	 0.000000	 0.000000	 0.047236
										CHANNELS 3 Zrotation Xrotation Yrotation
										JOINT LeftHandIndex3
										{
											OFFSET	-0.004284	-0.000551	 0.038166
											CHANNELS 3 Zrotation Xrotation Yrotation
											End Site
											{
												OFFSET	-0.004284	-0.000551	 0.038166
											}
										}
									}
								}
							}
						}
					}
				}
				JOINT Neck
				{
					OFFSET	 0.000000	 0.000000	 0.176489
					CHANNELS 3 Zrotation Xrotation Yrotation
					JOINT Head
					{
						OFFSET	 0.000000	-0.001747	 0.077940
						CHANNELS 3 Zrotation Xrotation Yrotation
						End Site
						{
							OFFSET	 0.000000	-0.001747	 0.077940
						}
					}
				}
				JOINT RightShoulder
				{
					OFFSET	-0.080363	 0.000306	 0.159706
					CHANNELS 3 Zrotation Xrotation Yrotation
					JOINT RightArm
					{
						OFFSET	 0.000000	 0.000000	 0.164196
						CHANNELS 3 Zrotation Xrotation Yrotation
						JOINT RightForeArm
						{
							OFFSET	 0.000000	 0.000000	 0.365611
							CHANNELS 3 Zrotation Xrotation Yrotation
							JOINT RightHand
							{
								OFFSET	 0.000000	 0.000000	 0.360648
								CHANNELS 3 Zrotation Xrotation Yrotation
								JOINT RightHandIndex1
								{
									OFFSET	 0.000000	 0.000000	 0.069977
									CHANNELS 3 Zrotation Xrotation Yrotation
									JOINT RightHandIndex2
									{
										OFFSET	 0.000000	 0.000000	 0.052305
										CHANNELS 3 Zrotation Xrotation Yrotation
										JOINT RightHandIndex3
										{
											OFFSET	 0.009002	-0.000782	 0.042196
											CHANNELS 3 Zrotation Xrotation Yrotation
											End Site
											{
												OFFSET	 0.009002	-0.000782	 0.042196
											}
										}
									}
								}
							}
						}
					}
				}
			}
		}
	}
}
MOTION
Frames:    6
Frame Time: 0.03333334
-0.057162	-2.218695	 1.199535	 3.793577	-1.899977	-3.435601	-6.350214	-14.081000	-169.928100	 0.014987	-39.442080	-0.244562	 46.720760	 80.161090	-49.845390	-2.372023	 31.168160	-0.059846	 5.722274	-27.896990	-175.324600	 10.034640	-54.645240	 8.879202	 13.000520	 68.934050	-8.710749	 2.357599	 33.200530	 0.107893	-0.211043	 9.009131	 1.405010	 0.527912	 2.904279	 1.755942	-4.855478	-2.575371	-2.295350	-93.708680	 58.787390	 175.898300	 22.507810	 43.673630	-28.974550	 0.080751	-1.611865	-12.180010	-1.506442	-25.404560	-5.944551	-4.868850	 19.280280	-2.794191	-3.891215	 21.348590	 2.212598	-4.805405	 5.579166	 0.144999	-0.141904	-4.995560	 0.150097	-7.058317	 2.190873	 2.561688	 89.855020	 61.515580	-179.826900	-20.868540	 52.281940	 10.623690	-1.137622	-2.824826	 14.879750	-4.666144	-11.905060	 0.856931	 6.307566	 26.214950	-0.574959	 1.702176	 46.140430	-6.829039	 0.302567	 25.248840	 3.683196
-0.057909	-2.231757	 1.199500	 4.714392	-1.483717	-3.394439	-7.213831	-13.882860	-170.016800	 0.807069	-39.290040	 0.237534	 46.626770	 80.238470	-50.358260	-2.370278	 31.468040	-0.066598	 3.713474	-29.221810	-175.004400	 10.923340	-53.096360	 9.387580	 22.499720	 75.616710	-19.358040	 2.358478	 33.072380	 0.104904	-0.900286	 8.820487	 1.275989	 0.551307	 2.501252	 1.850817	-4.997638	-2.543819	-2.311455	-93.880730	 58.954880	 175.512500	 23.112400	 42.746770	-29.831220	-1.088774	-1.407635	-12.631220	-1.676757	-25.663310	-7.599188	-4.869184	 19.245700	-2.786510	-3.886290	 21.411840	 2.207598	-4.808265	 5.545484	 0.146968	-0.092672	-5.055113	 0.175599	-7.024678	 2.133012	 2.376861	 89.797100	 61.626460	-179.964400	-20.315510	 52.791980	 9.628830	-1.419484	-2.836985	 14.584860	-4.701162	-11.292990	 0.647842	 6.297195	 25.226840	-0.552383	 1.836673	 45.092300	-6.949549	 0.475603	 24.498030	 3.594033
-0.058802	-2.250939	 1.199088	 5.788479	-0.678801	-3.414804	-8.333814	-13.833970	-170.142500	 1.261281	-39.081810	 0.572810	 46.212380	 80.308170	-50.350240	-2.368412	 31.777630	-0.073621	 1.124475	-31.288050	-174.650700	 12.008980	-50.750660	 9.952326	 56.421870	 81.325230	-55.077630	 2.359016	 32.993040	 0.103058	-1.615365	 8.317215	 1.071419	 0.556703	 2.026085	 2.096283	-5.182246	-2.535658	-2.374784	-94.121980	 59.019170	 174.989300	 23.476680	 41.427230	-30.346730	-1.741999	-1.397211	-13.958920	-1.389560	-25.966920	-8.990339	-4.863784	 19.391420	-2.797563	-3.873813	 21.571320	 2.194917	-4.804251	 5.592819	 0.144199	-0.036140	-5.107027	 0.235338	-7.014940	 2.079469	 2.182894	 89.710230	 61.732990	 179.828100	-19.599770	 53.407480	 8.207206	-2.042025	-2.950350	 14.329030	-5.059026	-10.538520	 0.319910	 6.275700	 23.508950	-0.552243	 2.046594	 43.364410	-7.136167	 0.810024	 23.017530	 3.426999
-0.059222	-2.271702	 1.198218	 6.350208	 0.095924	-3.674251	-8.817455	-13.510340	-169.994400	 1.518387	-38.669650	 0.728405	 47.768580	 80.612790	-52.132890	-2.366248	 32.129140	-0.081615	 0.056511	-33.280300	-174.006600	 12.708980	-48.075910	 10.102480	 88.525090	 80.407570	-88.967120	 2.360715	 32.740680	 0.097217	-1.927529	 7.705760	 1.106041	 0.575175	 1.944766	 2.317091	-5.313813	-2.618144	-2.462498	-94.318310	 58.968010	 174.578300	 23.336650	 40.064240	-30.610260	-2.426287	-1.387252	-15.713850	-1.147382	-26.534680	-8.868794	-4.850711	 19.704520	-2.814045	-3.856481	 21.791880	 2.177306	-4.794181	 5.711357	 0.137247	-0.010034	-5.164227	 0.297513	-7.053848	 2.037437	 2.123814	 89.594180	 61.875250	 179.548300	-18.879030	 53.983640	 6.865755	-3.053192	-3.182284	 14.165960	-5.763164	-9.807719	-0.425495	 6.246702	 21.727920	-0.603399	 2.213928	 41.900900	-7.283537	 1.194902	 21.266190	 3.243751
-0.059601	-2.296652	 1.196628	 6.588795	 0.609186	-4.016504	-9.017388	-12.579660	-169.714700	 1.668199	-38.097300	 0.811738	 49.410460	 80.801190	-53.941750	-2.361042	 32.930030	-0.100037	 0.735446	-34.841010	-172.975300	 12.455780	-44.740660	 9.384765	 113.462500	 76.025050	-115.045000	 2.355851	 33.451710	 0.113754	-2.120679	 7.142246	 1.289909	 0.617867	 2.371824	 2.430888	-5.380884	-2.830952	-2.512667	-94.447820	 58.892660	 174.314500	 22.599040	 38.649890	-30.904200	-3.156168	-1.332045	-17.612140	-1.198460	-26.840450	-8.286618	-4.832210	 20.090120	-2.821974	-3.832458	 22.095480	 2.152906	-4.776838	 5.915075	 0.125254	 0.013947	-5.247795	 0.335209	-7.067517	 1.974939	 2.069921	 89.480210	 61.998260	 179.271100	-17.908290	 54.556910	 5.266475	-4.355896	-3.522963	 14.141390	-6.574416	-9.193335	-1.674186	 6.209391	 19.725250	-0.681096	 2.446014	 39.733750	-7.485641	 1.628317	 19.234300	 3.049449
-0.060428	-2.326051	 1.194087	 6.804083	 0.779839	-4.308716	-9.273253	-11.019820	-169.451000	 1.845826	-37.454960	 0.908148	 48.592590	 80.644850	-53.278830	-2.348201	 34.707690	-0.141872	 1.853767	-35.795010	-171.819400	 12.157370	-40.563280	 8.481357	 118.851200	 71.959980	-121.271900	 2.343186	 35.131750	 0.153703	-2.478096	 6.971110	 1.460107	 0.660401	 2.792814	 2.552661	-5.398890	-3.108715	-2.574241	-94.519420	 58.880070	 174.164300	 21.299420	 37.418130	-31.342000	-3.474223	-1.343402	-19.114460	-1.499030	-27.305160	-8.234212	-4.833569	 20.386290	-2.917502	-3.804822	 22.441750	 2.124831	-4.750900	 6.218762	 0.107239	 0.065853	-5.342689	 0.350691	-7.009009	 1.950215	 1.890633	 89.394780	 62.008730	 179.064300	-16.661170	 55.055320	 3.100259	-5.621926	-3.942734	 14.418920	-7.130984	-8.997312	-3.054496	 6.176559	 17.578200	-0.708888	 2.718847	 36.962670	-7.719360	 2.078626	 17.058380	 2.861814
